<?xml version="1.0" encoding="UTF-8" standalone="no"?><!DOCTYPE svg PUBLIC "-//W3C//DTD SVG 1.1//EN" "http://www.w3.org/Graphics/SVG/1.1/DTD/svg11.dtd"><svg width="100%" height="100%" viewBox="0 0 400 318" version="1.1" xmlns="http://www.w3.org/2000/svg" xmlns:xlink="http://www.w3.org/1999/xlink" xml:space="preserve" xmlns:serif="http://www.serif.com/" style="fill-rule:evenodd;clip-rule:evenodd;stroke-linejoin:round;stroke-miterlimit:2;"><path d="M117.819,233.788c0,-0 -1.274,-14.654 0,-19.114c1.263,-4.418 7.646,-11.468 7.646,-11.468c-0,-0 -1.274,26.122 -0,30.582c3.26,-1.39 4.897,-1.39 7.645,-0c1.275,-4.46 0,-30.582 0,-30.582c0,-0 6.384,7.05 7.646,11.468c1.274,4.46 -0,19.114 -0,19.114c-0,-0 2.42,8.207 3.023,12.428c0.637,4.46 -1.984,6.79 -1.44,10.171c1.983,12.341 6.483,18.189 9.885,48.45c1.011,2.664 3.823,3.823 3.823,3.823c-0,0 -2.092,6.351 -4.64,6.988c-2.549,0.638 -4.597,0.682 -6.828,-1.582c-2.395,4.429 -26.76,3.514 -30.582,2.24c0.42,-5.94 7.645,-7.646 7.645,-7.646c0,0 -5.34,-5.785 -5.743,-8.605c-0.637,-4.46 1.92,-18.154 1.92,-18.154c0,-0 -1.082,3.738 -2.062,3.823c-0.341,9.364 -3.663,3.822 -3.663,3.822c-0,0 1.099,-11.872 2.08,-13.868c0.939,-1.911 3.645,-5.245 3.645,-5.245c0,-0 2.304,-13.386 2.08,-15.309c-0.29,-2.498 -3.822,-6.716 -3.822,-9.565c-0,-3.823 1.742,-11.771 1.742,-11.771Z"/><path d="M50.811,86.439c-0,-0 16.285,47.919 49.421,59.931c22.183,8.962 55.974,2.08 69.853,-3.178c3.183,8.858 13.789,13.282 13.789,13.282c-0,0 15.04,52.724 13.137,66.643c6.29,19.82 4.974,41.382 -1.001,73.991c-0.488,4.186 -16.972,5.941 -16.774,9.383c0.455,7.912 11.583,0.256 21.032,10.858c6.609,0.289 20.847,-10.135 20.847,-10.135c-0,0 0.979,-13.886 1.612,-21.458c-6.257,-24.126 3.516,-65.393 3.516,-65.393c-0,0 -13.406,-41.449 -9.932,-65.22c16.949,18.233 93.475,-8.872 115.463,-18.955c5.511,4.586 9.057,36.16 20.456,42.078c1.912,41.237 17.632,56.784 -19.839,113.397c-8.642,4.344 -17.461,7.788 -17.461,7.788l8.797,6.975l13.566,-2.035c-0,-0 19.239,6.116 23.731,-0.397c3.38,-40.42 27.422,-73.775 27.422,-73.775c-0,-0 -9.786,-35.767 -1.771,-62.56c1.742,-20.074 5.883,-66.836 5.883,-66.836c-0,0 5.244,20.943 -0.83,60.638c1.021,6.059 8.15,-10.328 8.272,-16.471c-0.583,-2.656 -1.485,-8.613 -6.685,-63.59c-8.358,-3.261 -29.533,-30.071 -48.956,-35.355c-41.573,-11.31 -38.101,-29.956 -55.153,-40.408c-23.005,-2.668 -27.933,15.689 -35.423,14.969c-8.084,-0.229 -22.587,-20.393 -34.576,-20.606c-18.486,4.312 -31.786,38.722 -31.786,38.722c-0,0 -22.164,38.273 -39.218,48.584c-10.139,11.04 -27.153,15.859 -37.863,11.392c-10.711,-4.467 -20.445,-29.358 -26.4,-38.195c0.63,-13.045 -9.332,-14.824 -9.332,-14.824c0,0 -2.706,-9.006 -5.508,-11.57c-0.838,-4.017 -0.251,-8.855 -0.251,-8.855c0,-0 -6.364,2.451 -10.476,5.614c-8.733,-1.048 -12.935,2.673 -20.749,7.347c-7.488,1.594 -12.956,-1.88 -22.962,-0.52c-6.253,4.096 -15.749,6.02 -14.56,25.091c9.221,5.791 10.509,-2.943 15.629,-1.805c5.463,1.213 0.772,6.778 17.153,9.086c2.368,5.89 17.927,16.372 17.927,16.372Z"/></svg>