<?xml version="1.0" encoding="UTF-8" standalone="no"?><!DOCTYPE svg PUBLIC "-//W3C//DTD SVG 1.1//EN" "http://www.w3.org/Graphics/SVG/1.1/DTD/svg11.dtd"><svg width="100%" height="100%" viewBox="0 0 378 320" version="1.1" xmlns="http://www.w3.org/2000/svg" xmlns:xlink="http://www.w3.org/1999/xlink" xml:space="preserve" xmlns:serif="http://www.serif.com/" style="fill-rule:evenodd;clip-rule:evenodd;stroke-linejoin:round;stroke-miterlimit:2;"><path d="M319.323,34.992c-0,0 -13.153,-8.046 -13.985,-27.969c-0.167,-0.611 10.322,-6.938 20.977,-0c4.44,6.049 5.05,12.819 6.993,16.315c1.067,1.921 4.661,4.662 4.661,4.662c0,-0 3.967,-2.577 4.662,-4.662c1.165,-3.496 1.818,-8.846 2.331,-16.315c6.049,-7.881 23.308,-6.993 23.308,-6.993c0,0 1.721,15.206 -4.662,27.97c-3.162,1.306 -6.992,4.662 -6.992,4.662l-0,41.954c-0,0 8.04,8.532 9.323,13.985c1.554,6.604 1.058,15.595 0,25.639c-8.879,4.995 -7.27,47.338 -9.323,62.933c-1.591,7.954 4.773,17.037 -6.993,23.308c-7.325,-3.275 -2.33,-16.316 -2.33,-16.316c-0,0 4.081,-16.928 4.661,-23.308c-2.997,-11.821 0,-27.97 0,-27.97l-13.985,20.977c0,0 3.608,11.71 4.662,25.639c0.531,7.016 -0.388,18.259 -2.331,20.978c-9.934,4.273 -9.323,-4.662 -9.323,-4.662c-0,0 2.331,-10.877 2.331,-16.316c-0,-5.438 -2.331,-16.315 -2.331,-16.315c-0,-0 -12.431,32.243 -18.647,39.624c-2.238,2.657 -3.721,6.418 -6.992,7.589c-10.545,3.773 -10.711,69.925 -4.662,90.902c22.93,0.214 39.236,-0.777 48.947,0c3.464,0.277 9.324,4.662 9.324,4.662c-0,-0 8.546,1.165 11.654,2.331c2.623,0.983 6.992,4.661 6.992,4.661c0,0 -3.699,4.404 -6.992,6.993c-28.631,0.157 -80.413,-0.777 -97.895,-2.331c-3.283,-0.292 -7.301,-3.711 -6.992,-6.993c2.164,-22.975 10.5,-20.759 9.323,-72.255c-0.177,-0.107 -7.769,1.554 -9.323,4.662c-1.433,2.865 -1.942,4.273 -4.662,4.661c-2.719,0.389 -7.406,0.266 -6.992,-4.661c0.721,-8.603 -9.324,-6.993 -9.324,-6.993l-13.984,23.308c-0,0 -26.453,49.544 -67.594,55.94c-39.014,6.066 -163.158,-2.331 -163.158,-2.331c0,0 59.048,-12.819 86.24,-16.316c25.477,-3.275 55.192,3.275 76.918,-4.661c39.957,-14.596 44.285,-62.932 44.285,-62.932c0,-0 2.753,-56.624 30.301,-100.226c10.551,-16.699 26.028,-22.531 39.624,-30.301c13.028,-7.444 20.2,-7.2 30.301,-12.25c6.949,-3.475 18.646,-13.985 18.646,-13.985c0,-0 -3.496,-10.489 -4.661,-16.316c-0.027,-9.011 -2.331,-20.978 -2.331,-20.978Z"/></svg>