<?xml version="1.0" encoding="UTF-8" standalone="no"?><!DOCTYPE svg PUBLIC "-//W3C//DTD SVG 1.1//EN" "http://www.w3.org/Graphics/SVG/1.1/DTD/svg11.dtd"><svg width="100%" height="100%" viewBox="0 0 1080 1920" version="1.1" xmlns="http://www.w3.org/2000/svg" xmlns:xlink="http://www.w3.org/1999/xlink" xml:space="preserve" xmlns:serif="http://www.serif.com/" style="fill-rule:evenodd;clip-rule:evenodd;stroke-linecap:round;stroke-linejoin:round;stroke-miterlimit:1.5;"><path d="M296.325,100c-0,0 69.782,44.361 136.046,151.163c0.483,0.778 -29.563,54.42 -28.721,105.814c-24.933,12.642 -32.852,52.966 -31.744,52.907c6.65,-0.359 6.347,6.525 45.349,7.558c9.298,0.246 9.483,-2.285 15.116,-2.268c4.126,0.014 -2.941,-8.733 0,-7.558c3.115,1.245 5.238,5.395 8.314,8.314c3.803,3.61 8.262,6.179 8.314,9.07c0.051,2.818 -4.077,5.384 -7.558,8.314c-4.961,4.176 -9.825,8.314 -9.825,8.314c-0,-0 5.43,-7.645 0.755,-7.558c-5.632,0.104 -4.634,-1.804 -15.116,-1.512c-38.411,1.07 -37.86,6.499 -45.349,7.558c-1.469,0.208 3.164,36.496 31.744,52.907c-0.983,57.296 29.169,105.025 28.721,105.814c-66.135,116.41 -136.046,151.163 -136.046,151.163c-0,-0 33.256,-77.093 33.256,-98.256c-0,-8.014 -10.582,-21.163 -10.582,-21.163c0,0 11.408,-45.852 11.408,-52.907c-0,-7.054 -11.408,-21.162 -11.408,-21.162c0,-0 16.551,-14.109 16.551,-21.163c-0,-7.054 -8.327,-21.163 -8.327,-21.163c0,0 11.038,-4.651 12.939,-11.705c1.84,-6.829 2.064,-13.275 0,-20.039c-2.152,-7.054 -13.605,-38.433 -13.605,-38.433c0,-0 -2.211,0.279 -9.32,-0.447c-9.216,-0.94 -19.073,-9.443 -29.939,-11.004c-30.465,-4.377 -36.322,-15.116 -51.438,-15.116c-15.117,-0 -35.272,15.116 -45.349,15.116c-7.126,0 -30.233,-22.674 -30.233,-22.674c0,-0 20.041,17.122 30.233,15.116c12.597,-2.48 30.232,-20.155 45.349,-22.674c15.103,-2.518 45.189,14.059 60.465,15.116c11.581,-3.83 13.373,-8.819 22.087,-9.903c6.761,-0.841 8.145,-1.319 8.145,-1.319c0,0 11.327,-31.608 13.605,-38.662c2.278,-7.054 1.632,-15.118 0,-22.095c-1.65,-7.054 -13.35,-9.649 -13.35,-9.649c-0,-0 7.093,-14.109 7.093,-21.163c-0,-7.054 -14.906,-21.163 -14.906,-21.163c0,0 10.582,-14.108 10.582,-21.162c-0,-7.055 -10.582,-52.907 -10.582,-52.907c0,-0 10.582,-13.276 10.582,-21.163c-0,-14.109 -33.256,-98.256 -33.256,-98.256Z" style="fill:#282929;stroke:#000;stroke-width:1px;"/><path d="M526.442,1615c-0,0 39.722,18.086 77.441,61.628c0.275,0.317 -16.828,22.187 -16.348,43.139c-14.193,5.155 -18.701,21.595 -18.07,21.57c3.785,-0.146 3.612,2.661 25.814,3.082c5.293,0.1 5.398,-0.932 8.604,-0.925c2.349,0.006 -1.674,-3.56 0,-3.081c1.773,0.507 2.982,2.199 4.733,3.389c2.165,1.472 4.703,2.519 4.733,3.698c0.028,1.149 -2.321,2.195 -4.303,3.39c-2.824,1.702 -5.593,3.389 -5.593,3.389c0,0 3.091,-3.117 0.43,-3.081c-3.206,0.042 -2.637,-0.736 -8.604,-0.617c-21.865,0.437 -21.551,2.65 -25.814,3.082c-0.836,0.084 1.801,14.879 18.07,21.57c-0.56,23.359 16.604,42.817 16.348,43.139c-37.646,47.46 -77.441,61.628 -77.441,61.628c-0,0 18.93,-31.43 18.93,-40.058c-0,-3.267 -6.023,-8.628 -6.023,-8.628c-0,-0 6.493,-18.694 6.493,-21.57c0,-2.876 -6.493,-8.628 -6.493,-8.628c-0,0 9.421,-5.752 9.421,-8.628c-0,-2.876 -4.74,-8.628 -4.74,-8.628c-0,0 6.283,-1.896 7.365,-4.772c1.048,-2.784 1.175,-5.412 0,-8.169c-1.225,-2.876 -7.744,-15.669 -7.744,-15.669c-0,-0 -1.259,0.114 -5.306,-0.182c-5.245,-0.384 -10.856,-3.85 -17.042,-4.487c-17.341,-1.784 -20.675,-6.162 -29.28,-6.162c-8.605,-0 -20.078,6.162 -25.814,6.162c-4.056,0 -17.209,-9.244 -17.209,-9.244c-0,0 11.407,6.981 17.209,6.163c7.171,-1.011 17.209,-8.217 25.814,-9.244c8.597,-1.026 25.723,5.732 34.419,6.163c6.592,-1.562 7.612,-3.596 12.572,-4.038c3.849,-0.343 4.637,-0.537 4.637,-0.537c-0,-0 6.447,-12.887 7.744,-15.763c1.297,-2.876 0.929,-6.163 0,-9.007c-0.939,-2.876 -7.599,-3.934 -7.599,-3.934c-0,-0 4.037,-5.752 4.037,-8.628c0,-2.876 -8.484,-8.628 -8.484,-8.628c-0,-0 6.023,-5.752 6.023,-8.628c-0,-2.876 -6.023,-21.57 -6.023,-21.57c-0,0 6.023,-5.412 6.023,-8.628c-0,-5.752 -18.93,-40.058 -18.93,-40.058Z" style="fill:#282929;stroke:#000;stroke-width:1px;"/><path d="M853.093,-80c-0,0 39.722,18.086 77.442,61.628c0.274,0.317 -16.829,22.187 -16.349,43.139c-14.193,5.155 -18.701,21.595 -18.07,21.57c3.785,-0.146 3.613,2.661 25.814,3.082c5.293,0.1 5.398,-0.932 8.605,-0.925c2.348,0.006 -1.675,-3.56 -0,-3.081c1.773,0.507 2.981,2.199 4.732,3.389c2.165,1.472 4.703,2.519 4.733,3.698c0.028,1.149 -2.321,2.195 -4.303,3.39c-2.823,1.702 -5.593,3.389 -5.593,3.389c0,0 3.091,-3.117 0.431,-3.081c-3.207,0.042 -2.638,-0.736 -8.605,-0.617c-21.865,0.437 -21.551,2.65 -25.814,3.082c-0.836,0.084 1.801,14.879 18.07,21.57c-0.56,23.359 16.604,42.817 16.349,43.139c-37.647,47.46 -77.442,61.628 -77.442,61.628c-0,0 18.93,-31.43 18.93,-40.058c-0,-3.267 -6.023,-8.628 -6.023,-8.628c-0,-0 6.493,-18.694 6.493,-21.57c0,-2.876 -6.493,-8.628 -6.493,-8.628c-0,0 9.421,-5.752 9.421,-8.628c-0,-2.876 -4.74,-8.628 -4.74,-8.628c0,0 6.283,-1.896 7.365,-4.772c1.048,-2.784 1.175,-5.412 0,-8.169c-1.225,-2.876 -7.744,-15.669 -7.744,-15.669c0,-0 -1.259,0.114 -5.305,-0.182c-5.246,-0.384 -10.857,-3.85 -17.043,-4.487c-17.341,-1.784 -20.675,-6.162 -29.28,-6.162c-8.604,-0 -20.077,6.162 -25.814,6.162c-4.056,0 -17.209,-9.244 -17.209,-9.244c-0,0 11.408,6.981 17.209,6.163c7.171,-1.011 17.21,-8.217 25.814,-9.244c8.598,-1.026 25.724,5.732 34.419,6.163c6.592,-1.562 7.612,-3.596 12.572,-4.038c3.849,-0.343 4.637,-0.537 4.637,-0.537c0,-0 6.448,-12.887 7.744,-15.763c1.297,-2.876 0.929,-6.163 0,-9.007c-0.939,-2.876 -7.599,-3.934 -7.599,-3.934c-0,-0 4.038,-5.752 4.038,-8.628c-0,-2.876 -8.485,-8.628 -8.485,-8.628c-0,-0 6.023,-5.752 6.023,-8.628c-0,-2.876 -6.023,-21.57 -6.023,-21.57c-0,0 6.023,-5.412 6.023,-8.628c-0,-5.752 -18.93,-40.058 -18.93,-40.058Z" style="fill:#282929;stroke:#000;stroke-width:1px;"/><path d="M853.093,-80c-0,0 39.722,18.086 77.442,61.628c0.274,0.317 -16.829,22.187 -16.349,43.139c-14.193,5.155 -18.701,21.595 -18.07,21.57c3.785,-0.146 3.613,2.661 25.814,3.082c5.293,0.1 5.398,-0.932 8.605,-0.925c2.348,0.006 -1.675,-3.56 -0,-3.081c1.773,0.507 2.981,2.199 4.732,3.389c2.165,1.472 4.703,2.519 4.733,3.698c0.028,1.149 -2.321,2.195 -4.303,3.39c-2.823,1.702 -5.593,3.389 -5.593,3.389c0,0 3.091,-3.117 0.431,-3.081c-3.207,0.042 -2.638,-0.736 -8.605,-0.617c-21.865,0.437 -21.551,2.65 -25.814,3.082c-0.836,0.084 1.801,14.879 18.07,21.57c-0.56,23.359 16.604,42.817 16.349,43.139c-37.647,47.46 -77.442,61.628 -77.442,61.628c-0,0 18.93,-31.43 18.93,-40.058c-0,-3.267 -6.023,-8.628 -6.023,-8.628c-0,-0 6.493,-18.694 6.493,-21.57c0,-2.876 -6.493,-8.628 -6.493,-8.628c-0,0 9.421,-5.752 9.421,-8.628c-0,-2.876 -4.74,-8.628 -4.74,-8.628c0,0 6.283,-1.896 7.365,-4.772c1.048,-2.784 1.175,-5.412 0,-8.169c-1.225,-2.876 -7.744,-15.669 -7.744,-15.669c0,-0 -1.259,0.114 -5.305,-0.182c-5.246,-0.384 -10.857,-3.85 -17.043,-4.487c-17.341,-1.784 -20.675,-6.162 -29.28,-6.162c-8.604,-0 -20.077,6.162 -25.814,6.162c-4.056,0 -17.209,-9.244 -17.209,-9.244c-0,0 11.408,6.981 17.209,6.163c7.171,-1.011 17.21,-8.217 25.814,-9.244c8.598,-1.026 25.724,5.732 34.419,6.163c6.592,-1.562 7.612,-3.596 12.572,-4.038c3.849,-0.343 4.637,-0.537 4.637,-0.537c0,-0 6.448,-12.887 7.744,-15.763c1.297,-2.876 0.929,-6.163 0,-9.007c-0.939,-2.876 -7.599,-3.934 -7.599,-3.934c-0,-0 4.038,-5.752 4.038,-8.628c-0,-2.876 -8.485,-8.628 -8.485,-8.628c-0,-0 6.023,-5.752 6.023,-8.628c-0,-2.876 -6.023,-21.57 -6.023,-21.57c-0,0 6.023,-5.412 6.023,-8.628c-0,-5.752 -18.93,-40.058 -18.93,-40.058Z" style="fill:#282929;stroke:#000;stroke-width:1px;"/><path d="M857.442,1840c-0,0 39.722,18.086 77.442,61.628c0.274,0.317 -16.829,22.187 -16.349,43.139c-14.193,5.155 -18.701,21.595 -18.07,21.57c3.785,-0.146 3.613,2.661 25.814,3.082c5.293,0.1 5.398,-0.932 8.605,-0.925c2.348,0.006 -1.675,-3.56 -0,-3.081c1.773,0.507 2.981,2.199 4.732,3.389c2.165,1.472 4.703,2.519 4.733,3.698c0.029,1.149 -2.321,2.195 -4.302,3.39c-2.824,1.702 -5.594,3.389 -5.594,3.389c0,0 3.092,-3.117 0.431,-3.081c-3.206,0.042 -2.638,-0.736 -8.605,-0.617c-21.865,0.437 -21.551,2.65 -25.814,3.082c-0.836,0.084 1.801,14.879 18.07,21.57c-0.56,23.359 16.604,42.817 16.349,43.139c-37.647,47.46 -77.442,61.628 -77.442,61.628c-0,0 18.93,-31.43 18.93,-40.058c0,-3.267 -6.023,-8.628 -6.023,-8.628c-0,-0 6.493,-18.694 6.493,-21.57c0,-2.876 -6.493,-8.628 -6.493,-8.628c-0,0 9.421,-5.752 9.421,-8.628c-0,-2.876 -4.74,-8.628 -4.74,-8.628c0,0 6.283,-1.896 7.365,-4.772c1.048,-2.784 1.175,-5.412 0,-8.169c-1.225,-2.876 -7.744,-15.669 -7.744,-15.669c0,-0 -1.259,0.114 -5.305,-0.182c-5.246,-0.384 -10.857,-3.85 -17.042,-4.487c-17.342,-1.784 -20.676,-6.162 -29.281,-6.162c-8.604,-0 -20.077,6.162 -25.814,6.162c-4.056,0 -17.209,-9.244 -17.209,-9.244c0,0 11.408,6.981 17.209,6.163c7.171,-1.011 17.21,-8.217 25.814,-9.244c8.598,-1.026 25.724,5.732 34.419,6.163c6.592,-1.562 7.612,-3.596 12.572,-4.038c3.849,-0.343 4.637,-0.537 4.637,-0.537c0,-0 6.448,-12.887 7.744,-15.763c1.297,-2.876 0.929,-6.163 0,-9.007c-0.939,-2.876 -7.599,-3.934 -7.599,-3.934c0,-0 4.038,-5.752 4.038,-8.628c-0,-2.876 -8.485,-8.628 -8.485,-8.628c-0,-0 6.023,-5.752 6.023,-8.628c0,-2.876 -6.023,-21.57 -6.023,-21.57c-0,0 6.023,-5.412 6.023,-8.628c0,-5.752 -18.93,-40.058 -18.93,-40.058Z" style="fill:#282929;stroke:#000;stroke-width:1px;"/><path d="M625.393,420c-0,0 84.834,76.437 165.392,260.465c0.587,1.341 -35.941,93.771 -34.916,182.326c-30.312,21.783 -39.939,91.265 -38.592,91.162c8.084,-0.617 7.716,11.245 55.131,13.024c11.304,0.424 11.528,-3.938 18.377,-3.907c5.016,0.022 -3.576,-15.048 0,-13.023c3.787,2.144 6.368,9.294 10.107,14.325c4.624,6.22 10.045,10.646 10.108,15.628c0.061,4.856 -4.957,9.276 -9.189,14.326c-6.031,7.195 -11.945,14.325 -11.945,14.325c0,0 6.602,-13.173 0.919,-13.023c-6.847,0.18 -5.634,-3.108 -18.377,-2.605c-46.697,1.844 -46.026,11.198 -55.131,13.024c-1.785,0.358 3.847,62.884 38.592,91.162c-1.196,98.726 35.461,180.967 34.916,182.326c-80.401,200.583 -165.392,260.465 -165.392,260.465c-0,0 40.429,-132.837 40.429,-169.302c-0,-13.809 -12.864,-36.465 -12.864,-36.465c-0,-0 13.868,-79.008 13.868,-91.163c0,-12.155 -13.868,-36.465 -13.868,-36.465c-0,-0 20.12,-24.31 20.12,-36.465c0,-12.156 -10.122,-36.466 -10.122,-36.466c-0,0 13.418,-8.014 15.73,-20.169c2.237,-11.766 2.509,-22.873 -0,-34.528c-2.617,-12.155 -16.54,-66.223 -16.54,-66.223c0,-0 -2.688,0.481 -11.33,-0.769c-11.204,-1.621 -23.187,-16.272 -36.397,-18.962c-37.037,-7.542 -44.157,-26.046 -62.534,-26.046c-18.377,-0 -42.88,26.046 -55.131,26.046c-8.663,0 -36.754,-39.07 -36.754,-39.07c0,0 24.363,29.504 36.754,26.047c15.314,-4.273 36.754,-34.729 55.131,-39.07c18.361,-4.337 54.937,24.226 73.508,26.047c14.079,-6.6 16.257,-15.195 26.851,-17.063c8.219,-1.45 9.902,-2.273 9.902,-2.273c0,-0 13.771,-54.463 16.54,-66.618c2.769,-12.155 1.984,-26.049 -0,-38.071c-2.007,-12.155 -16.23,-16.626 -16.23,-16.626c-0,-0 8.623,-24.31 8.623,-36.466c-0,-12.155 -18.121,-36.465 -18.121,-36.465c-0,0 12.864,-24.31 12.864,-36.465c-0,-12.155 -12.864,-91.163 -12.864,-91.163c-0,0 12.864,-22.875 12.864,-36.465c-0,-24.31 -40.429,-169.302 -40.429,-169.302Z" style="fill:#282929;stroke:#000;stroke-width:1px;"/><path d="M77.999,1160c0,0 92.328,58.693 180,200c0.639,1.029 -39.115,72.002 -38,140c-32.988,16.726 -43.466,70.079 -42,70c8.798,-0.474 8.397,8.634 60,10c12.302,0.326 12.547,-3.024 20,-3c5.459,0.017 -3.891,-11.555 0,-10c4.121,1.646 6.931,7.137 11,11c5.032,4.776 10.932,8.175 11,12c0.067,3.728 -5.394,7.123 -10,11c-6.563,5.525 -13,11 -13,11c0,0 7.185,-10.115 1,-10c-7.452,0.138 -6.131,-2.386 -20,-2c-50.821,1.415 -50.091,8.599 -60,10c-1.943,0.275 4.187,48.286 42,70c-1.301,75.807 38.593,138.956 38,140c-87.502,154.02 -180,200 -180,200c0,0 44,-102 44,-130c0,-10.603 -14,-28 -14,-28c0,0 15.094,-60.667 15.094,-70c-0,-9.333 -15.094,-28 -15.094,-28c0,0 21.898,-18.667 21.898,-28c-0,-9.333 -11.017,-28 -11.017,-28c0,0 14.604,-6.154 17.119,-15.487c2.435,-9.035 2.731,-17.563 0,-26.513c-2.847,-9.333 -18,-50.85 -18,-50.85c0,0 -2.926,0.37 -12.331,-0.59c-12.193,-1.245 -25.235,-12.494 -39.612,-14.56c-40.307,-5.792 -48.057,-20 -68.057,-20c-20,0 -46.666,20 -60,20c-9.428,0 -40,-30 -40,-30c0,0 26.516,22.655 40,20c16.667,-3.281 40,-26.667 60,-30c19.984,-3.331 59.79,18.602 80,20c15.324,-5.067 17.694,-11.668 29.223,-13.102c8.945,-1.113 10.777,-1.745 10.777,-1.745c0,-0 14.987,-41.82 18,-51.153c3.014,-9.333 2.16,-20.002 0,-29.233c-2.183,-9.333 -17.663,-12.767 -17.663,-12.767c0,0 9.385,-18.667 9.385,-28c-0,-9.333 -19.722,-28 -19.722,-28c0,0 14,-18.667 14,-28c0,-9.333 -14,-70 -14,-70c0,0 14,-17.565 14,-28c0,-18.667 -44,-130 -44,-130Z" style="fill:#282929;stroke:#000;stroke-width:1px;"/><path d="M1149,1160c-0,0 92.327,58.693 180,200c0.638,1.029 -39.115,72.002 -38,140c-32.989,16.726 -43.467,70.079 -42,70c8.798,-0.474 8.396,8.634 60,10c12.302,0.326 12.546,-3.024 20,-3c5.458,0.017 -3.892,-11.555 -0,-10c4.121,1.646 6.93,7.137 11,11c5.031,4.776 10.931,8.175 11,12c0.066,3.728 -5.394,7.123 -10,11c-6.564,5.525 -13,11 -13,11c-0,0 7.184,-10.115 1,-10c-7.453,0.138 -6.132,-2.386 -20,-2c-50.821,1.415 -50.092,8.599 -60,10c-1.944,0.275 4.186,48.286 42,70c-1.301,75.807 38.593,138.956 38,140c-87.502,154.02 -180,200 -180,200c-0,0 44,-102 44,-130c-0,-10.603 -14,-28 -14,-28c-0,0 15.093,-60.667 15.093,-70c-0,-9.333 -15.093,-28 -15.093,-28c-0,0 21.897,-18.667 21.897,-28c0,-9.333 -11.017,-28 -11.017,-28c0,0 14.604,-6.154 17.12,-15.487c2.435,-9.035 2.73,-17.563 -0,-26.513c-2.848,-9.333 -18,-50.85 -18,-50.85c-0,0 -2.926,0.37 -12.332,-0.59c-12.193,-1.245 -25.235,-12.494 -39.611,-14.56c-40.308,-5.792 -48.057,-20 -68.057,-20c-20,0 -46.667,20 -60,20c-9.428,0 -40,-30 -40,-30c-0,0 26.515,22.655 40,20c16.666,-3.281 40,-26.667 60,-30c19.983,-3.331 59.789,18.602 80,20c15.323,-5.067 17.693,-11.668 29.222,-13.102c8.946,-1.113 10.778,-1.745 10.778,-1.745c-0,-0 14.986,-41.82 18,-51.153c3.013,-9.333 2.159,-20.002 -0,-29.233c-2.184,-9.333 -17.664,-12.767 -17.664,-12.767c0,0 9.385,-18.667 9.385,-28c0,-9.333 -19.721,-28 -19.721,-28c-0,0 14,-18.667 14,-28c-0,-9.333 -14,-70 -14,-70c-0,0 14,-17.565 14,-28c-0,-18.667 -44,-130 -44,-130Z" style="fill:#282929;stroke:#000;stroke-width:1px;"/><path d="M89,-760c-0,0 92.327,58.693 180,200c0.638,1.029 -39.115,72.002 -38,140c-32.989,16.726 -43.467,70.079 -42,70c8.798,-0.474 8.396,8.634 60,10c12.302,0.326 12.546,-3.024 20,-3c5.458,0.017 -3.892,-11.555 -0,-10c4.121,1.646 6.93,7.137 11,11c5.031,4.776 10.931,8.175 11,12c0.066,3.728 -5.394,7.123 -10,11c-6.564,5.525 -13,11 -13,11c-0,0 7.184,-10.115 1,-10c-7.453,0.138 -6.132,-2.386 -20,-2c-50.821,1.415 -50.092,8.599 -60,10c-1.944,0.275 4.186,48.286 42,70c-1.301,75.807 38.593,138.956 38,140c-87.502,154.02 -180,200 -180,200c-0,0 44,-102 44,-130c-0,-10.603 -14,-28 -14,-28c-0,-0 15.093,-60.667 15.093,-70c-0,-9.333 -15.093,-28 -15.093,-28c-0,0 21.897,-18.667 21.897,-28c0,-9.333 -11.017,-28 -11.017,-28c0,-0 14.604,-6.154 17.12,-15.487c2.435,-9.035 2.73,-17.563 -0,-26.513c-2.848,-9.333 -18,-50.85 -18,-50.85c-0,0 -2.926,0.37 -12.332,-0.59c-12.193,-1.245 -25.235,-12.494 -39.611,-14.56c-40.308,-5.792 -48.057,-20 -68.057,-20c-20,0 -46.667,20 -60,20c-9.428,0 -40,-30 -40,-30c-0,0 26.515,22.655 40,20c16.666,-3.281 40,-26.667 60,-30c19.983,-3.331 59.789,18.602 80,20c15.323,-5.067 17.693,-11.668 29.222,-13.102c8.946,-1.113 10.778,-1.745 10.778,-1.745c-0,-0 14.986,-41.82 18,-51.153c3.013,-9.333 2.159,-20.002 -0,-29.233c-2.184,-9.333 -17.664,-12.767 -17.664,-12.767c0,-0 9.385,-18.667 9.385,-28c0,-9.333 -19.721,-28 -19.721,-28c-0,0 14,-18.667 14,-28c-0,-9.333 -14,-70 -14,-70c-0,0 14,-17.565 14,-28c-0,-18.667 -44,-130 -44,-130Z" style="fill:#282929;stroke:#000;stroke-width:1px;"/></svg>