<?xml version="1.0" encoding="UTF-8" standalone="no"?><!DOCTYPE svg PUBLIC "-//W3C//DTD SVG 1.1//EN" "http://www.w3.org/Graphics/SVG/1.1/DTD/svg11.dtd"><svg width="100%" height="100%" viewBox="0 0 621 384" version="1.1" xmlns="http://www.w3.org/2000/svg" xmlns:xlink="http://www.w3.org/1999/xlink" xml:space="preserve" xmlns:serif="http://www.serif.com/" style="fill-rule:evenodd;clip-rule:evenodd;stroke-linecap:round;stroke-linejoin:round;stroke-miterlimit:1.5;"><path d="M0.5,142.501c0,-0 39.066,-37.377 140,-100c0.735,-0.457 51.43,20.796 100,20c11.947,23.563 50.079,41.466 50,40c-0.474,-8.798 8.634,-8.397 10,-60c0.326,-12.302 -3.024,-12.547 -3,-20c0.017,-5.459 -11.555,3.891 -10,-0c1.646,-4.121 7.137,-6.931 11,-11c4.776,-5.032 8.175,-10.932 12,-11c3.728,-0.067 7.123,5.394 11,10c5.525,6.563 11,13 11,13c0,-0 -10.115,-7.185 -10,-1c0.138,7.452 -2.386,6.131 -2,20c1.415,50.821 8.599,50.091 10,60c0.275,1.943 34.49,-12.991 50,-40c54.148,0.929 99.255,-20.424 100,-20c110.014,62.501 140,100 140,100c0,-0 -70,-10 -90,-10c-7.574,-0 -20,10 -20,10c0,-0 -43.333,-10.781 -50,-10.781c-6.667,-0 -20,10.781 -20,10.781c0,-0 -13.333,-15.641 -20,-15.641c-6.667,-0 -20,7.869 -20,7.869c-0,-0 -4.396,-10.432 -11.062,-12.228c-6.453,-1.74 -12.545,-1.951 -18.938,-0c-6.667,2.034 -30,20 -30,20c0,-0 -2.662,9.286 -5.44,32.331c-1.468,12.168 -12.494,25.235 -14.56,39.612c-5.792,40.307 -20,48.057 -20,68.057c0,20 20,46.666 20,60c0,9.428 -30,40 -30,40c0,-0 22.655,-26.516 20,-40c-3.281,-16.667 -26.667,-40 -30,-60c-3.331,-19.984 18.602,-59.79 20,-80c-5.067,-15.324 -10.216,-17.969 -13.102,-29.223c-6.569,-25.617 -6.898,-30.777 -6.898,-30.777c0,-0 -23.333,-17.848 -30,-20c-6.667,-2.153 -14.287,-1.543 -20.881,-0c-6.666,1.559 -9.119,12.616 -9.119,12.616c-0,0 -13.333,-6.703 -20,-6.703c-6.667,-0 -20,14.087 -20,14.087c0,-0 -13.333,-10 -20,-10c-6.667,-0 -50,10 -50,10c0,-0 -12.546,-10 -20,-10c-13.333,-0 -90,10 -90,10Z" style="fill:#282929;stroke:#000;stroke-width:1px;"/></svg>