<?xml version="1.0" encoding="UTF-8" standalone="no"?><!DOCTYPE svg PUBLIC "-//W3C//DTD SVG 1.1//EN" "http://www.w3.org/Graphics/SVG/1.1/DTD/svg11.dtd"><svg width="100%" height="100%" viewBox="0 0 398 238" version="1.1" xmlns="http://www.w3.org/2000/svg" xmlns:xlink="http://www.w3.org/1999/xlink" xml:space="preserve" xmlns:serif="http://www.serif.com/" style="fill-rule:evenodd;clip-rule:evenodd;stroke-linejoin:round;stroke-miterlimit:2;"><g><path d="M88.214,37.806c-5.334,20.097 -22.267,33.605 -31.505,44.107c-6.653,7.564 -21.82,4.201 -30.221,0c-8.402,-4.201 -20.187,-25.204 -20.187,-25.204l-6.301,12.602c-0,0 9.452,25.204 18.903,31.505c9.452,6.301 27.304,9.452 37.806,6.301c10.502,-3.15 31.505,-18.903 31.505,-18.903l6.301,0c0,0 -6.301,14.702 -12.602,18.903c-6.301,4.201 -25.204,6.301 -25.204,6.301c0,0 29.703,8.252 37.806,0c9.854,-10.034 12.602,-18.903 12.602,-18.903l18.903,-3.15c0,-0 14.746,-1.7 18.903,3.15c9.452,11.027 14.853,47.12 37.806,63.01c8.402,23.104 1.206,51.992 12.602,75.612c32.478,-5.089 25.738,10.982 44.107,0c-8.852,-43.388 0,-75.612 0,-75.612c0,0 29.193,12.891 94.515,0c-9.86,45.765 7.963,62.842 5.761,70.427c27.974,4.099 25.745,-7.417 25.745,-7.417c-0,0 3.694,4.393 16.958,2.199c-10.136,-62.028 -0.29,-43.578 1.945,-65.209c13.118,-43.238 6.301,-75.612 6.301,-75.612c-0,0 3.522,16.302 6.301,41.495c1.266,1.644 0.905,-13.983 0.864,-15.426c-4.1,-14.228 -4.105,-28.894 -4.105,-28.894c-0,0 -7.026,-14.34 -16.049,-22.474c-13.024,-7.361 -27.061,-14.166 -40.345,-14.166c-19.953,-0 -35.931,1.659 -60.085,1.659c-21.419,0 -63.01,-12.602 -63.01,-12.602c0,0 -0.9,-11.527 6.301,-25.204c-5.761,-5.251 -28.264,-6.301 -40.866,-6.301c-12.602,-0 -29.968,11.209 -41.047,12.602c-32.875,4.134 -46.076,8.881 -50.408,25.204Z"/><path d="M159.844,185.979c0,0 -0.735,-8.458 0,-11.032c0.729,-2.55 4.413,-6.62 4.413,-6.62c0,0 -0.735,15.078 0,17.652c1.882,-0.802 2.827,-0.802 4.414,0c0.735,-2.574 -0,-17.652 -0,-17.652c-0,0 3.684,4.07 4.413,6.62c0.735,2.574 -0,11.032 -0,11.032c-0,0 1.396,4.738 1.744,7.174c0.368,2.574 -1.144,3.919 -0.831,5.871c1.145,7.123 3.743,10.498 5.706,27.965c0.583,1.538 2.207,2.207 2.207,2.207c-0,-0 -1.208,3.666 -2.679,4.034c-1.471,0.367 -2.653,0.393 -3.941,-0.914c-1.382,2.557 -15.446,2.028 -17.652,1.293c0.243,-3.429 4.413,-4.413 4.413,-4.413c-0,-0 -3.082,-3.339 -3.315,-4.967c-0.368,-2.575 1.108,-10.479 1.108,-10.479c0,0 -0.624,2.158 -1.19,2.207c-0.197,5.405 -2.114,2.206 -2.114,2.206c-0,0 0.634,-6.853 1.2,-8.005c0.542,-1.103 2.104,-3.027 2.104,-3.027c0,-0 1.33,-7.726 1.201,-8.836c-0.168,-1.442 -2.206,-3.877 -2.206,-5.522c-0,-2.206 1.005,-6.794 1.005,-6.794Z"/></g></svg>