<?xml version="1.0" encoding="UTF-8" standalone="no"?><!DOCTYPE svg PUBLIC "-//W3C//DTD SVG 1.1//EN" "http://www.w3.org/Graphics/SVG/1.1/DTD/svg11.dtd"><svg width="100%" height="100%" viewBox="0 0 741 441" version="1.1" xmlns="http://www.w3.org/2000/svg" xmlns:xlink="http://www.w3.org/1999/xlink" xml:space="preserve" xmlns:serif="http://www.serif.com/" style="fill-rule:evenodd;clip-rule:evenodd;stroke-linecap:round;stroke-linejoin:round;stroke-miterlimit:1.5;"><path d="M484.338,25.134c-0,0 -54.194,78.453 -54.194,109.47c0,28.558 54.194,76.628 54.194,76.628c-0,0 1.512,46.497 23.225,43.788c21.936,-2.736 96.775,-30.104 116.129,-49.261c15.075,-14.921 -9.032,-52.91 0,-65.682c8.323,-11.767 46.452,-21.894 46.452,-21.894" style="fill:none;stroke:#000;stroke-width:40.29px;"/><path d="M255.767,351.121c8.753,-17.903 15.694,-64.073 30.757,-67.955c15.062,-3.882 34.654,41.105 59.619,44.662c25,3.562 71.13,-35.259 90.377,-23.292c19.246,11.966 43.624,115.598 43.624,115.598c0,0 -141.042,0.262 -260,0c-15.814,-0.035 29.035,-55.538 35.623,-69.013Z" style="fill:none;stroke:#000;stroke-width:40.29px;"/><path d="M328.257,138.31c2.719,-7.523 -2.091,-20.593 3.679,-24.33c5.77,-3.736 25.425,-7.115 30.942,1.911c5.518,9.027 -33.242,29.321 6.803,67.863c5.784,5.566 -52.531,-14.714 -41.424,-45.444Z" style="fill:none;stroke:#000;stroke-width:21.28px;"/><path d="M195.155,20.144l349.983,0c-0,0 176.938,-1.555 174.991,200c-1.931,199.842 -174.991,200 -174.991,200l-354.809,0c-0,0 -172.336,0.001 -170.165,-200c2.154,-198.375 174.991,-200 174.991,-200Z" style="fill:none;stroke:#000;stroke-width:40.29px;"/><path d="M190.791,90.134c30,8.334 61.127,68.332 59.353,90c-1.774,21.669 -55.487,17.39 -70,40.01c-18.333,28.576 -18.333,128.114 -40,131.446c-21.667,3.331 -90,-111.456 -90,-111.456c0,0 -3.441,-85 20,-110c23.441,-25 90.647,-48.333 120.647,-40Z" style="fill:none;stroke:#000;stroke-width:40.29px;"/><path d="M540.144,420.251c0,-0 11.667,-91.764 30,-100.117c18.333,-8.353 80,50 80,50" style="fill:none;stroke:#000;stroke-width:40.29px;"/></svg>