<?xml version="1.0" encoding="UTF-8" standalone="no"?><!DOCTYPE svg PUBLIC "-//W3C//DTD SVG 1.1//EN" "http://www.w3.org/Graphics/SVG/1.1/DTD/svg11.dtd"><svg width="100%" height="100%" viewBox="0 0 341 321" version="1.1" xmlns="http://www.w3.org/2000/svg" xmlns:xlink="http://www.w3.org/1999/xlink" xml:space="preserve" xmlns:serif="http://www.serif.com/" style="fill-rule:evenodd;clip-rule:evenodd;stroke-linejoin:round;stroke-miterlimit:2;"><path d="M252.129,81.151l39.657,-81.151l11.33,5.665l-42.356,81.888c5.953,3.869 13.207,7.47 22.528,10.145c30.023,1.974 18.809,32.603 18.809,32.603c-0,0 9.046,-2.141 37.844,5.666c0.701,0.19 1.127,169.958 -113.306,169.958c-6.443,-0 0,14.163 0,14.163l-113.305,0c-0,0 7.205,-14.163 -0,-14.163c-113.028,-0 -113.598,-169.837 -113.306,-169.958c16.293,-6.768 21.642,-5.666 21.642,-5.666c-0,0 -6.493,-12.889 5.675,-17.615c8.693,-3.377 2.859,-24.981 11.435,-29.977c8.576,-4.996 40.023,-0 40.023,-0c-0,-0 9.036,-19.348 17.152,-22.746c8.116,-3.399 17.805,3.1 31.542,2.355c12.535,-0.68 20.736,-5.308 27.92,-3.499c12.619,3.177 30.874,23.89 30.874,23.89c0,-0 25.612,-21.593 40.348,-19.316c9.336,1.443 15.45,9.407 25.494,17.758c1.468,1.221 3.021,2.45 4.68,3.668l-4.68,-3.668Zm-237.043,64.72c0,-0 -2.127,36.112 154.897,32.585c156.737,-3.52 156.963,-34.835 156.963,-34.835c-42.751,40.223 -281.299,43.713 -311.86,2.25Z"/></svg>